<svg width="24" height="25" viewBox="0 0 24 25" fill="none" xmlns="http://www.w3.org/2000/svg">
<g opacity="0.6">
<path d="M12.1934 15.5594V13.6364C12.1934 11.1639 14.1949 9.15259 16.6771 9.15259H18.6001" stroke="#292D32" stroke-linecap="round" stroke-linejoin="round"/>
<path d="M5.7959 9.16235H7.71894C10.1914 9.16235 12.2027 11.1639 12.2027 13.6461V14.2839V17.6982" stroke="#292D32" stroke-linecap="round" stroke-linejoin="round"/>
<path d="M7.28751 7.39636L5.52148 9.1624L7.28751 10.9284" stroke="#292D32" stroke-linecap="round" stroke-linejoin="round"/>
<path d="M16.8242 7.39636L18.5902 9.1624L16.8242 10.9284" stroke="#292D32" stroke-linecap="round" stroke-linejoin="round"/>
<path d="M9.11207 22.3586H14.9989C19.9045 22.3586 21.8668 20.3963 21.8668 15.4907V9.60389C21.8668 4.69823 19.9045 2.73596 14.9989 2.73596H9.11207C4.2064 2.73596 2.24414 4.69823 2.24414 9.60389V15.4907C2.24414 20.3963 4.2064 22.3586 9.11207 22.3586Z" stroke="#292D32" stroke-linecap="round" stroke-linejoin="round"/>
</g>
</svg>
