<svg width="15" height="15" viewBox="0 0 15 15" fill="none" xmlns="http://www.w3.org/2000/svg">
<path d="M5.58756 10.5813L3.8188 8.81249C3.2313 8.22499 3.2313 7.63127 3.8188 7.04377L6.7688 4.09375L10.0126 7.3375C10.1751 7.5 10.1751 7.76254 10.0126 7.92504L7.3563 10.5813C6.7688 11.1688 6.17506 11.1688 5.58756 10.5813Z" stroke="#292D32" stroke-width="0.9375" stroke-miterlimit="10" stroke-linecap="round" stroke-linejoin="round"/>
<path d="M6.17505 3.5L6.76879 4.0875" stroke="#292D32" stroke-width="0.9375" stroke-miterlimit="10" stroke-linecap="round" stroke-linejoin="round"/>
<path d="M3.40015 7.90018L10.0814 7.60645" stroke="#292D32" stroke-width="0.9375" stroke-miterlimit="10" stroke-linecap="round" stroke-linejoin="round"/>
<path d="M10.8126 9.25635C10.8126 9.25635 9.9939 10.1438 9.9939 10.6875C9.9939 11.1375 10.3626 11.5063 10.8126 11.5063C11.2626 11.5063 11.6314 11.1375 11.6314 10.6875C11.6251 10.1438 10.8126 9.25635 10.8126 9.25635Z" stroke="#292D32" stroke-width="0.9375" stroke-linecap="round" stroke-linejoin="round"/>
<path d="M13.75 9.375V5.625C13.75 2.5 12.5 1.25 9.375 1.25H5.625C2.5 1.25 1.25 2.5 1.25 5.625V9.375C1.25 12.5 2.5 13.75 5.625 13.75H9.375C12.5 13.75 13.75 12.5 13.75 9.375Z" stroke="#292D32" stroke-width="0.9375" stroke-linecap="round" stroke-linejoin="round"/>
</svg>
