<svg width="16" height="16" viewBox="0 0 16 16" fill="none" xmlns="http://www.w3.org/2000/svg">
<path d="M8.76139 14.6667H3.83975C2.60935 14.6667 1.99414 14 1.99414 12.6667V7.33337C1.99414 6.00004 2.60935 5.33337 3.83975 5.33337H6.91578V12.6667C6.91578 14 7.53098 14.6667 8.76139 14.6667Z" stroke="#696C6F" stroke-miterlimit="10" stroke-linecap="round" stroke-linejoin="round"/>
<path d="M6.98353 2.66663C6.93431 2.86663 6.91587 3.08663 6.91587 3.33329V5.33329H3.83984V3.99996C3.83984 3.26663 4.39353 2.66663 5.07025 2.66663H6.98353Z" stroke="#696C6F" stroke-miterlimit="10" stroke-linecap="round" stroke-linejoin="round"/>
<path d="M9.37695 5.33337V8.66671" stroke="#696C6F" stroke-miterlimit="10" stroke-linecap="round" stroke-linejoin="round"/>
<path d="M11.8369 5.33337V8.66671" stroke="#696C6F" stroke-miterlimit="10" stroke-linecap="round" stroke-linejoin="round"/>
<path d="M11.2226 11.3334H9.99216C9.6538 11.3334 9.37695 11.6334 9.37695 12V14.6667H11.8378V12C11.8378 11.6334 11.5609 11.3334 11.2226 11.3334Z" stroke="#696C6F" stroke-miterlimit="10" stroke-linecap="round" stroke-linejoin="round"/>
<path d="M4.45508 8.66663V11.3333" stroke="#696C6F" stroke-miterlimit="10" stroke-linecap="round" stroke-linejoin="round"/>
<path d="M6.91602 12.6667V3.33337C6.91602 2.00004 7.53122 1.33337 8.76163 1.33337H12.4529C13.6833 1.33337 14.2985 2.00004 14.2985 3.33337V12.6667C14.2985 14 13.6833 14.6667 12.4529 14.6667H8.76163C7.53122 14.6667 6.91602 14 6.91602 12.6667Z" stroke="#696C6F" stroke-miterlimit="10" stroke-linecap="round" stroke-linejoin="round"/>
</svg>
