<svg width="13" height="15" viewBox="0 0 13 15" fill="none" xmlns="http://www.w3.org/2000/svg">
<path d="M12.3586 11.4562C12.3586 11.6812 12.3125 11.9125 12.2144 12.1375C12.1164 12.3625 11.9895 12.575 11.8222 12.775C11.5396 13.1125 11.2282 13.3563 10.8763 13.5125C10.5303 13.6688 10.1554 13.75 9.75168 13.75C9.16339 13.75 8.53472 13.6 7.87146 13.2938C7.20819 12.9875 6.54492 12.575 5.88742 12.0563C5.22415 11.5313 4.59549 10.95 3.99567 10.3062C3.40161 9.65625 2.86523 8.975 2.38652 8.2625C1.91358 7.55 1.53293 6.8375 1.25608 6.13125C0.979241 5.41875 0.84082 4.7375 0.84082 4.0875C0.84082 3.6625 0.910031 3.25625 1.04845 2.88125C1.18687 2.5 1.40604 2.15 1.71172 1.8375C2.08084 1.44375 2.48457 1.25 2.91137 1.25C3.07286 1.25 3.23435 1.2875 3.37854 1.3625C3.5285 1.4375 3.66115 1.55 3.76496 1.7125L5.10304 3.75625C5.20685 3.9125 5.28183 4.05625 5.33374 4.19375C5.38564 4.325 5.41448 4.45625 5.41448 4.575C5.41448 4.725 5.37411 4.875 5.29336 5.01875C5.21839 5.1625 5.1088 5.3125 4.97038 5.4625L4.53205 5.95625C4.4686 6.025 4.43977 6.10625 4.43977 6.20625C4.43977 6.25625 4.44554 6.3 4.45707 6.35C4.47437 6.4 4.49168 6.4375 4.50321 6.475C4.60703 6.68125 4.78582 6.95 5.03959 7.275C5.29913 7.6 5.57597 7.93125 5.87589 8.2625C6.18733 8.59375 6.48725 8.9 6.79292 9.18125C7.09284 9.45625 7.34084 9.64375 7.53694 9.75625C7.56578 9.76875 7.60038 9.7875 7.64075 9.80625C7.68689 9.825 7.73303 9.83125 7.78494 9.83125C7.88299 9.83125 7.95797 9.79375 8.02141 9.725L8.45975 9.25625C8.60393 9.1 8.74235 8.98125 8.87501 8.90625C9.00766 8.81875 9.14031 8.775 9.2845 8.775C9.39409 8.775 9.50944 8.8 9.63632 8.85625C9.76321 8.9125 9.89586 8.99375 10.0401 9.1L11.9491 10.5687C12.0991 10.6812 12.2029 10.8125 12.2663 10.9687C12.324 11.125 12.3586 11.2812 12.3586 11.4562Z" stroke="#4C4C4C" stroke-width="0.9375" stroke-miterlimit="10"/>
</svg>
