<svg width="25" height="24" viewBox="0 0 25 24" fill="none" xmlns="http://www.w3.org/2000/svg">
<g opacity="0.7">
<mask id="mask0_257_2433" style="mask-type:alpha" maskUnits="userSpaceOnUse" x="2" y="2" width="21" height="21">
<path fill-rule="evenodd" clip-rule="evenodd" d="M2.81152 2.24561H22.9243V22.3583H2.81152V2.24561Z" fill="white"/>
</mask>
<g mask="url(#mask0_257_2433)">
<path fill-rule="evenodd" clip-rule="evenodd" d="M5.1261 5.24839C5.12806 5.24839 5.079 5.29941 5.01719 5.36024C4.77976 5.59081 4.28821 6.07058 4.2833 7.07428C4.27546 8.47828 5.1987 11.0851 9.64421 15.5297C14.0691 19.9526 16.6721 20.8867 18.079 20.8867H18.0996C19.1033 20.8818 19.5821 20.3892 19.8136 20.1528C19.8843 20.0802 19.9412 20.0272 19.9814 19.9938C20.9586 19.0107 21.459 18.2788 21.4541 17.8098C21.4472 17.331 20.8517 16.7649 20.0285 15.982C19.7665 15.7328 19.482 15.462 19.1818 15.1618C18.4038 14.3857 18.0182 14.5181 17.1705 14.8164C15.998 15.2275 14.389 15.7867 11.889 13.2858C9.38519 10.7839 9.94542 9.17684 10.3555 8.00439C10.6518 7.15669 10.7872 6.77013 10.0082 5.99111C9.70308 5.68696 9.42934 5.3985 9.17719 5.1336C8.39915 4.31533 7.83795 3.72371 7.3621 3.71684H7.35425C6.88429 3.71684 6.15432 4.21918 5.12119 5.25232C5.12413 5.24937 5.12512 5.24839 5.1261 5.24839ZM18.08 22.3584C15.635 22.3584 12.4473 20.4118 8.60421 16.5707C4.7464 12.7138 2.79689 9.51632 2.81161 7.06643C2.82044 5.44756 3.66912 4.6185 3.98798 4.30749C4.00466 4.28688 4.06157 4.23096 4.08119 4.21133C5.48813 2.80341 6.43689 2.23435 7.38074 2.24515C8.47666 2.25986 9.25666 3.08009 10.2437 4.11911C10.488 4.37616 10.7529 4.65579 11.0482 4.95013C12.4807 6.38258 12.0725 7.55111 11.7448 8.48907C11.3877 9.51239 11.0786 10.3954 12.929 12.2458C14.7814 14.0962 15.6644 13.7872 16.6838 13.4271C17.6228 13.0994 18.7884 12.6893 20.2228 14.1218C20.5132 14.4122 20.7889 14.6741 21.043 14.9165C22.0869 15.9084 22.9111 16.6923 22.9248 17.7912C22.9366 18.7282 22.3675 19.6828 20.9625 21.0888L20.3405 20.6669L20.8664 21.181C20.5554 21.4999 19.7273 22.3495 18.1075 22.3584H18.08Z" fill="#292D32"/>
</g>
</g>
</svg>
