<svg width="17" height="17" viewBox="0 0 17 17" fill="none" xmlns="http://www.w3.org/2000/svg">
<g opacity="0.8">
<path d="M10.8019 2.39954H6.06672C4.38714 2.39954 4.01615 3.23595 3.8003 4.26123L3.03809 7.91043H13.8305L13.0683 4.26123C12.8525 3.23595 12.4815 2.39954 10.8019 2.39954Z" stroke="#292D32" stroke-width="0.6875" stroke-linecap="round" stroke-linejoin="round"/>
<path d="M15.1724 13.8596C15.2466 14.6488 14.6126 15.3301 13.8031 15.3301H12.535C11.8065 15.3301 11.7054 15.0198 11.5772 14.6353L11.4423 14.2306C11.2534 13.6775 11.132 13.3065 10.1607 13.3065H6.70711C5.73579 13.3065 5.59414 13.7247 5.4255 14.2306L5.2906 14.6353C5.16244 15.0198 5.06126 15.3301 4.33277 15.3301H3.06465C2.25522 15.3301 1.62116 14.6488 1.69536 13.8596L2.0731 9.75174C2.16753 8.73995 2.36315 7.91028 4.13041 7.91028H12.7374C14.5047 7.91028 14.7003 8.73995 14.7947 9.75174L15.1724 13.8596Z" stroke="#292D32" stroke-width="0.6875" stroke-linecap="round" stroke-linejoin="round"/>
<path d="M3.03781 5.88672H2.36328" stroke="#292D32" stroke-width="0.6875" stroke-linecap="round" stroke-linejoin="round"/>
<path d="M14.5056 5.88672H13.8311" stroke="#292D32" stroke-width="0.6875" stroke-linecap="round" stroke-linejoin="round"/>
<path d="M8.43457 2.51404V3.86309" stroke="#292D32" stroke-width="0.6875" stroke-linecap="round" stroke-linejoin="round"/>
<path d="M7.42285 3.86316H9.44644" stroke="#292D32" stroke-width="0.6875" stroke-linecap="round" stroke-linejoin="round"/>
<path d="M4.38672 10.6085H6.4103" stroke="#292D32" stroke-width="0.6875" stroke-linecap="round" stroke-linejoin="round"/>
<path d="M10.458 10.6085H12.4816" stroke="#292D32" stroke-width="0.6875" stroke-linecap="round" stroke-linejoin="round"/>
</g>
</svg>
