<svg width="79" height="79" viewBox="0 0 79 79" fill="none" xmlns="http://www.w3.org/2000/svg">
<circle cx="39.5" cy="39.5" r="39.5" fill="#FFFAF9"/>
<path opacity="0.4" d="M49.3729 36.2559C49.3729 36.3437 48.6845 45.0506 48.2913 48.7149C48.0451 50.9636 46.5954 52.3276 44.4209 52.3663C42.7502 52.4038 41.1146 52.4167 39.5054 52.4167C37.7969 52.4167 36.1261 52.4038 34.5044 52.3663C32.4027 52.3159 30.9518 50.9249 30.7181 48.7149C30.3136 45.0376 29.6378 36.3437 29.6252 36.2559C29.6127 35.9911 29.6981 35.7393 29.8715 35.5352C30.0423 35.3466 30.2885 35.2329 30.5473 35.2329H48.4634C48.7209 35.2329 48.9546 35.3466 49.1393 35.5352C49.3114 35.7393 49.398 35.9911 49.3729 36.2559" fill="#CA2B1D"/>
<path d="M51.125 31.7201C51.125 31.1893 50.7067 30.7734 50.2042 30.7734H46.4381C45.6718 30.7734 45.006 30.2283 44.8351 29.4598L44.6241 28.5182C44.3289 27.3803 43.3101 26.5833 42.1669 26.5833H36.8343C35.6786 26.5833 34.6699 27.3803 34.3633 28.5802L34.1661 29.4611C33.994 30.2283 33.3282 30.7734 32.5632 30.7734H28.7971C28.2933 30.7734 27.875 31.1893 27.875 31.7201V32.2109C27.875 32.7289 28.2933 33.1577 28.7971 33.1577H50.2042C50.7067 33.1577 51.125 32.7289 51.125 32.2109V31.7201Z" fill="#CA2B1D"/>
</svg>
