<svg width="16" height="16" viewBox="0 0 16 16" fill="none" xmlns="http://www.w3.org/2000/svg">
<path d="M6.30155 14.6667H9.99278C13.0688 14.6667 14.2992 13.3334 14.2992 10V6.00004C14.2992 2.66671 13.0688 1.33337 9.99278 1.33337H6.30155C3.22553 1.33337 1.99512 2.66671 1.99512 6.00004V10C1.99512 13.3334 3.22553 14.6667 6.30155 14.6667Z" stroke="#4C4C4C" stroke-linecap="round" stroke-linejoin="round"/>
<path d="M1.99512 8.6667H4.30829C4.77584 8.6667 5.20033 8.95337 5.4095 9.4067L5.95704 10.6C6.30155 11.3334 6.91675 11.3334 7.0644 11.3334H9.23608C9.70363 11.3334 10.1281 11.0467 10.3373 10.5934L10.8848 9.40003C11.094 8.9467 11.5185 8.66003 11.986 8.66003H14.2869" stroke="#4C4C4C" stroke-linecap="round" stroke-linejoin="round"/>
<path d="M7.12598 4.66663H9.17461" stroke="#4C4C4C" stroke-linecap="round" stroke-linejoin="round"/>
<path d="M6.60938 6.66663H9.6854" stroke="#4C4C4C" stroke-linecap="round" stroke-linejoin="round"/>
</svg>
