<svg width="16" height="16" viewBox="0 0 16 16" fill="none" xmlns="http://www.w3.org/2000/svg">
<path d="M9.69997 1.33325H6.29997C5.09997 1.33325 4.83331 1.93326 4.67997 2.67326L4.1333 5.28658H11.8666L11.32 2.67326C11.1666 1.93326 10.9 1.33325 9.69997 1.33325Z" stroke="#292D32" stroke-linecap="round" stroke-linejoin="round"/>
<path d="M12.8266 9.54647C12.88 10.1131 12.4266 10.5998 11.8466 10.5998H10.94C10.42 10.5998 10.3466 10.3798 10.2533 10.0998L10.1533 9.81311C10.02 9.41978 9.93329 9.15312 9.23329 9.15312H6.75995C6.06662 9.15312 5.95995 9.45311 5.83995 9.81311L5.73996 10.0998C5.64662 10.3731 5.57329 10.5998 5.05329 10.5998H4.14662C3.56662 10.5998 3.11329 10.1131 3.16662 9.54647L3.43996 6.59981C3.50662 5.87315 3.64662 5.27979 4.91328 5.27979H11.08C12.3466 5.27979 12.4866 5.87315 12.5533 6.59981L12.8266 9.54647Z" stroke="#292D32" stroke-linecap="round" stroke-linejoin="round"/>
<path d="M4.13327 3.83325H3.64661" stroke="#292D32" stroke-linecap="round" stroke-linejoin="round"/>
<path d="M12.3532 3.83325H11.8666" stroke="#292D32" stroke-linecap="round" stroke-linejoin="round"/>
<path d="M5.09998 7.21997H6.54665" stroke="#292D32" stroke-linecap="round" stroke-linejoin="round"/>
<path d="M9.45325 7.21997H10.8999" stroke="#292D32" stroke-linecap="round" stroke-linejoin="round"/>
<path d="M8 11.3333V11.9999" stroke="#292D32" stroke-linecap="round" stroke-linejoin="round"/>
<path d="M8 14V14.6667" stroke="#292D32" stroke-linecap="round" stroke-linejoin="round"/>
<path d="M2.00004 12L1.33337 14.6667" stroke="#292D32" stroke-linecap="round" stroke-linejoin="round"/>
<path d="M14 12L14.6667 14.6667" stroke="#292D32" stroke-linecap="round" stroke-linejoin="round"/>
</svg>
