<svg width="18" height="17" viewBox="0 0 18 17" fill="none" xmlns="http://www.w3.org/2000/svg">
<path fill-rule="evenodd" clip-rule="evenodd" d="M2.6332 12.5918H5.51755C5.73388 12.5918 5.8781 12.5238 6.02231 12.3878L13.9543 4.90477C14.2427 4.63266 14.2427 4.2245 13.9543 3.95239L11.0699 1.2313C10.7815 0.959194 10.3488 0.959194 10.0604 1.2313L2.12844 8.7143C1.98422 8.85035 1.91211 8.98641 1.91211 9.19049V11.9116C1.91211 12.3197 2.20054 12.5918 2.6332 12.5918ZM3.35429 9.46259L10.5652 2.65987L12.44 4.42858L5.22912 11.2313H3.35429V9.46259ZM15.6128 15.9932C16.0454 15.9932 16.3339 15.7211 16.3339 15.3129C16.3339 14.9048 16.0454 14.6327 15.6128 14.6327H2.6332C2.20054 14.6327 1.91211 14.9048 1.91211 15.3129C1.91211 15.7211 2.20054 15.9932 2.6332 15.9932H15.6128Z" fill="black"/>
<mask id="mask0_489_2991" style="mask-type:alpha" maskUnits="userSpaceOnUse" x="1" y="1" width="16" height="15">
<path fill-rule="evenodd" clip-rule="evenodd" d="M2.6332 12.5918H5.51755C5.73388 12.5918 5.8781 12.5238 6.02231 12.3878L13.9543 4.90477C14.2427 4.63266 14.2427 4.2245 13.9543 3.95239L11.0699 1.2313C10.7815 0.959194 10.3488 0.959194 10.0604 1.2313L2.12844 8.7143C1.98422 8.85035 1.91211 8.98641 1.91211 9.19049V11.9116C1.91211 12.3197 2.20054 12.5918 2.6332 12.5918ZM3.35429 9.46259L10.5652 2.65987L12.44 4.42858L5.22912 11.2313H3.35429V9.46259ZM15.6128 15.9932C16.0454 15.9932 16.3339 15.7211 16.3339 15.3129C16.3339 14.9048 16.0454 14.6327 15.6128 14.6327H2.6332C2.20054 14.6327 1.91211 14.9048 1.91211 15.3129C1.91211 15.7211 2.20054 15.9932 2.6332 15.9932H15.6128Z" fill="white"/>
</mask>
<g mask="url(#mask0_489_2991)">
<rect x="0.469727" y="0.346924" width="17.3061" height="16.3265" fill="white"/>
</g>
</svg>
