<svg width="49" height="47" viewBox="0 0 49 47" fill="none" xmlns="http://www.w3.org/2000/svg">
<rect width="49" height="47" rx="8" fill="#CA2B1D" fill-opacity="0.1"/>
<path fill-rule="evenodd" clip-rule="evenodd" d="M30.3512 13.25C31.8039 13.25 33.2014 13.8242 34.2295 14.8544C35.2586 15.8825 35.8339 17.2692 35.8339 18.7208V27.2792C35.8339 30.3017 33.3747 32.75 30.3512 32.75H19.6489C16.6253 32.75 14.1672 30.3017 14.1672 27.2792V18.7208C14.1672 15.6983 16.6145 13.25 19.6489 13.25H30.3512ZM32.0748 20.335L32.1614 20.2483C32.4203 19.9342 32.4203 19.4792 32.1495 19.165C31.9989 19.0036 31.792 18.905 31.5764 18.8833C31.3489 18.8714 31.1323 18.9483 30.9687 19.1L26.0839 23C25.4556 23.5211 24.5553 23.5211 23.9173 23L19.0423 19.1C18.7053 18.8508 18.2395 18.8833 17.9589 19.1758C17.6664 19.4683 17.6339 19.9342 17.882 20.2592L18.0239 20.4L22.9531 24.2458C23.5598 24.7225 24.2953 24.9825 25.0656 24.9825C25.8337 24.9825 26.5823 24.7225 27.1878 24.2458L32.0748 20.335Z" fill="#CA2B1D"/>
</svg>
