<svg width="49" height="47" viewBox="0 0 49 47" fill="none" xmlns="http://www.w3.org/2000/svg">
<rect width="49" height="47" rx="8" fill="#CA2B1D" fill-opacity="0.1"/>
<path fill-rule="evenodd" clip-rule="evenodd" d="M29.9828 19.0124V20.6735C31.8487 21.256 33.2082 22.9451 33.2082 24.9625V30.3108C33.2082 32.8084 31.1375 34.8334 28.5847 34.8334H19.416C16.8621 34.8334 14.7915 32.8084 14.7915 30.3108V24.9625C14.7915 22.9451 16.1521 21.256 18.0169 20.6735V19.0124C18.0279 15.7828 20.7029 13.1667 23.9833 13.1667C27.3078 13.1667 29.9828 15.7828 29.9828 19.0124ZM24.0053 15.0507C26.24 15.0507 28.0563 16.827 28.0563 19.0124V20.4399H19.9433V18.9909C19.9543 16.8163 21.7707 15.0507 24.0053 15.0507ZM24.963 28.8263C24.963 29.3538 24.5337 29.7736 23.9943 29.7736C23.4659 29.7736 23.0366 29.3538 23.0366 28.8263V26.4363C23.0366 25.9196 23.4659 25.4997 23.9943 25.4997C24.5337 25.4997 24.963 25.9196 24.963 26.4363V28.8263Z" fill="#CA2B1D"/>
</svg>
