<svg width="24" height="25" viewBox="0 0 24 25" fill="none" xmlns="http://www.w3.org/2000/svg">
<g opacity="0.7">
<path d="M2.62402 8.40673V17.9531C2.62402 19.8173 3.94855 20.5826 5.55761 19.6603L7.86327 18.3456C8.36365 18.0611 9.19761 18.0316 9.71761 18.2965L14.8686 20.8769C15.3886 21.132 16.2225 21.1124 16.7229 20.8279L20.9712 18.3947C21.5108 18.0807 21.9621 17.3154 21.9621 16.6875V7.14107C21.9621 5.27692 20.6376 4.51164 19.0286 5.4339L16.7229 6.74862C16.2225 7.03315 15.3886 7.06258 14.8686 6.79768L9.71761 4.22711C9.19761 3.97202 8.36365 3.99164 7.86327 4.27617L3.61497 6.70938C3.06553 7.02334 2.62402 7.78862 2.62402 8.40673Z" stroke="#292D32" stroke-linecap="round" stroke-linejoin="round"/>
<path d="M8.77539 4.69812V17.4528" stroke="#292D32" stroke-linecap="round" stroke-linejoin="round"/>
<path d="M15.8105 7.26868V20.3962" stroke="#292D32" stroke-linecap="round" stroke-linejoin="round"/>
</g>
</svg>
