<svg width="25" height="24" viewBox="0 0 25 24" fill="none" xmlns="http://www.w3.org/2000/svg">
<g opacity="0.7">
<path fill-rule="evenodd" clip-rule="evenodd" d="M12.404 13.5317C11.7477 13.5317 11.0932 13.3148 10.5458 12.8812L6.14539 9.33341C5.82848 9.07831 5.77943 8.61424 6.03354 8.29831C6.28962 7.98337 6.75271 7.93333 7.06863 8.18745L11.4651 11.7313C12.0175 12.1689 12.7955 12.1689 13.3518 11.7274L17.7041 8.18941C18.02 7.93137 18.4831 7.98043 18.7402 8.29635C18.9963 8.61129 18.9482 9.07439 18.6332 9.33145L14.2731 12.8753C13.7217 13.3129 13.0624 13.5317 12.404 13.5317Z" fill="#292D32"/>
<mask id="mask0_257_2437" style="mask-type:alpha" maskUnits="userSpaceOnUse" x="1" y="2" width="22" height="20">
<path fill-rule="evenodd" clip-rule="evenodd" d="M1.83008 2.2832H22.9243V21.4153H1.83008V2.2832Z" fill="white"/>
</mask>
<g mask="url(#mask0_257_2437)">
<path fill-rule="evenodd" clip-rule="evenodd" d="M7.55891 19.9436H17.1936C17.1956 19.9416 17.2034 19.9436 17.2093 19.9436C18.3288 19.9436 19.3217 19.5433 20.0831 18.7829C20.9671 17.9028 21.4527 16.6381 21.4527 15.2224V8.48396C21.4527 5.74366 19.6612 3.7549 17.1936 3.7549H7.56087C5.09332 3.7549 3.30178 5.74366 3.30178 8.48396V15.2224C3.30178 16.6381 3.78842 17.9028 4.67144 18.7829C5.4328 19.5433 6.42668 19.9436 7.54517 19.9436H7.55891ZM7.54223 21.4153C6.02834 21.4153 4.67634 20.8658 3.63242 19.8258C2.46978 18.6661 1.83008 17.0316 1.83008 15.2224V8.48396C1.83008 4.94894 4.2937 2.2832 7.56087 2.2832H17.1936C20.4608 2.2832 22.9244 4.94894 22.9244 8.48396V15.2224C22.9244 17.0316 22.2847 18.6661 21.1221 19.8258C20.0791 20.8649 18.7262 21.4153 17.2093 21.4153H17.1936H7.56087H7.54223Z" fill="#292D32"/>
</g>
</g>
</svg>
