<svg width="15" height="15" viewBox="0 0 15 15" fill="none" xmlns="http://www.w3.org/2000/svg">
<path d="M6.8875 12.1875H4.6875C4.3 12.1875 3.95625 12.175 3.65 12.1312C2.00625 11.95 1.5625 11.175 1.5625 9.0625V5.9375C1.5625 3.825 2.00625 3.05 3.65 2.86875C3.95625 2.825 4.3 2.8125 4.6875 2.8125H6.85" stroke="#292D32" stroke-width="0.9375" stroke-linecap="round" stroke-linejoin="round"/>
<path d="M9.38745 2.8125H10.3125C10.7 2.8125 11.0437 2.825 11.35 2.86875C12.9937 3.05 13.4375 3.825 13.4375 5.9375V9.0625C13.4375 11.175 12.9937 11.95 11.35 12.1312C11.0437 12.175 10.7 12.1875 10.3125 12.1875H9.38745" stroke="#292D32" stroke-width="0.9375" stroke-linecap="round" stroke-linejoin="round"/>
<path d="M9.375 1.25V13.75" stroke="#292D32" stroke-width="0.9375" stroke-linecap="round" stroke-linejoin="round"/>
<path d="M6.93407 7.5H6.93968" stroke="#292D32" stroke-width="1.25" stroke-linecap="round" stroke-linejoin="round"/>
<path d="M4.43407 7.5H4.43968" stroke="#292D32" stroke-width="1.25" stroke-linecap="round" stroke-linejoin="round"/>
</svg>
