<svg width="24" height="24" viewBox="0 0 24 24" fill="none" xmlns="http://www.w3.org/2000/svg">
<g opacity="0.7">
<path d="M2.3133 4.53237C3.0982 1.13765 8.2099 1.13765 8.985 4.53237C9.44613 6.52406 8.18047 8.21161 7.0816 9.26142C6.27707 10.0267 5.01141 10.0169 4.20688 9.26142C3.11783 8.21161 1.85217 6.52406 2.3133 4.53237Z" stroke="#292D32"/>
<path d="M15.0681 16.3059C15.853 12.9112 20.9942 12.9112 21.7791 16.3059C22.2402 18.2976 20.9745 19.9852 19.8659 21.035C19.0613 21.8003 17.7859 21.7905 16.9813 21.035C15.8726 19.9852 14.607 18.2976 15.0681 16.3059Z" stroke="#292D32"/>
<path d="M12.056 4.9248H14.6854C16.5005 4.9248 17.3443 7.1716 15.9805 8.36858L8.14126 15.2267C6.77749 16.4139 7.62126 18.6607 9.42654 18.6607H12.056" stroke="#292D32" stroke-linecap="round" stroke-linejoin="round"/>
<path d="M5.66513 5.41537H5.67647" stroke="#292D32" stroke-width="1.33333" stroke-linecap="round" stroke-linejoin="round"/>
<path d="M18.42 17.1889H18.4314" stroke="#292D32" stroke-width="1.33333" stroke-linecap="round" stroke-linejoin="round"/>
</g>
</svg>
