<svg width="100" height="86" viewBox="0 0 100 86" fill="none" xmlns="http://www.w3.org/2000/svg">
<path d="M83.4365 17.9503C86.267 18.2254 92.1873 17.3134 93.2252 11.4637C94.2632 5.61406 97.0387 3.9944 98.2967 3.91577" stroke="#F3603F" stroke-width="3" stroke-linecap="round"/>
<circle cx="58.3004" cy="41.8114" r="28.2994" fill="#53B175"/>
<g filter="url(#filter0_d_132_5338)">
<circle cx="58.3007" cy="41.8115" r="23.7441" stroke="white" stroke-opacity="0.7" stroke-width="2"/>
</g>
<path d="M70.8765 35.6205C70.8765 36.391 70.5742 37.135 70.0244 37.6664L57.2423 50.0486C56.665 50.58 55.8953 50.8989 55.0982 50.8989C54.301 50.8989 53.5313 50.58 52.9816 50.0486L46.5768 43.8575C46.027 43.3261 45.7246 42.5821 45.7246 41.8115C45.7246 41.041 46.0545 40.3236 46.6042 39.7656C47.1815 39.2341 47.9237 38.9419 48.7209 38.9153C49.518 38.9153 50.2602 39.2076 50.8375 39.739L55.0982 43.8575L65.7637 33.5479C66.341 33.0165 67.0831 32.7242 67.8803 32.7242C68.6775 32.7508 69.4197 33.0431 69.9969 33.6011C70.5467 34.1325 70.8765 34.8499 70.8765 35.6205Z" fill="white"/>
<path d="M79.4893 70.1102C82.1312 70.8733 87.2388 73.7734 86.5342 79.2683" stroke="#F7B23B" stroke-width="3" stroke-linecap="round" stroke-linejoin="round"/>
<path d="M2 62.356C6.05411 63.8829 14.7942 64.9781 17.3214 57.1436M17.3214 57.1436C17.69 54.9849 17.3215 50.7149 12.8988 50.9045C12.0564 52.9842 11.7615 57.1436 17.3214 57.1436ZM17.3214 57.1436C19.1642 57.4858 23.45 57.1594 25.8509 53.1158" stroke="#6E89FA" stroke-width="3" stroke-linecap="round" stroke-linejoin="round"/>
<circle cx="66.3356" cy="83.2875" r="2.71256" fill="#637BFE"/>
<circle cx="91.9792" cy="40.3327" r="2.21256" stroke="#C05EFD"/>
<circle cx="48.9197" cy="2.97048" r="2.97048" fill="#53B175"/>
<circle cx="57.3539" cy="7.98445" r="1.56874" fill="#F3603F"/>
<circle cx="22.7775" cy="31.0225" r="2.2492" stroke="#F7B23B"/>
<circle cx="29.0923" cy="74.3726" r="2.52296" stroke="#53B175"/>
<circle r="1.44418" transform="matrix(-1 0 0 1 57.9015 80.1767)" fill="#53B175"/>
<defs>
<filter id="filter0_d_132_5338" x="29.5566" y="16.0674" width="57.4883" height="57.4882" filterUnits="userSpaceOnUse" color-interpolation-filters="sRGB">
<feFlood flood-opacity="0" result="BackgroundImageFix"/>
<feColorMatrix in="SourceAlpha" type="matrix" values="0 0 0 0 0 0 0 0 0 0 0 0 0 0 0 0 0 0 127 0" result="hardAlpha"/>
<feOffset dy="3"/>
<feGaussianBlur stdDeviation="2"/>
<feColorMatrix type="matrix" values="0 0 0 0 0 0 0 0 0 0 0 0 0 0 0 0 0 0 0.12 0"/>
<feBlend mode="normal" in2="BackgroundImageFix" result="effect1_dropShadow_132_5338"/>
<feBlend mode="normal" in="SourceGraphic" in2="effect1_dropShadow_132_5338" result="shape"/>
</filter>
</defs>
</svg>
