<svg width="15" height="16" viewBox="0 0 15 16" fill="none" xmlns="http://www.w3.org/2000/svg">
<g opacity="0.7">
<path d="M11.2334 14.4134C10.692 14.5867 10.0522 14.6667 9.30168 14.6667H5.61045C4.8599 14.6667 4.22009 14.5867 3.67871 14.4134C3.81406 12.68 5.45665 11.3134 7.45607 11.3134C9.45548 11.3134 11.0981 12.68 11.2334 14.4134Z" stroke="#292D32" stroke-linecap="round" stroke-linejoin="round"/>
<path d="M9.30137 1.33337H5.61014C2.53412 1.33337 1.30371 2.66671 1.30371 6.00004V10C1.30371 12.52 2.00504 13.9 3.6784 14.4134C3.81375 12.68 5.45634 11.3134 7.45576 11.3134C9.45517 11.3134 11.0978 12.68 11.2331 14.4134C12.9065 13.9 13.6078 12.52 13.6078 10V6.00004C13.6078 2.66671 12.3774 1.33337 9.30137 1.33337ZM7.45576 9.4467C6.23765 9.4467 5.25332 8.37339 5.25332 7.05339C5.25332 5.73339 6.23765 4.66671 7.45576 4.66671C8.67386 4.66671 9.65819 5.73339 9.65819 7.05339C9.65819 8.37339 8.67386 9.4467 7.45576 9.4467Z" stroke="#292D32" stroke-linecap="round" stroke-linejoin="round"/>
<path d="M9.6578 7.0533C9.6578 8.3733 8.67347 9.44661 7.45536 9.44661C6.23726 9.44661 5.25293 8.3733 5.25293 7.0533C5.25293 5.7333 6.23726 4.66663 7.45536 4.66663C8.67347 4.66663 9.6578 5.7333 9.6578 7.0533Z" stroke="#292D32" stroke-linecap="round" stroke-linejoin="round"/>
</g>
</svg>
