<?xml version="1.0" encoding="utf-8"?>
<!-- Generator: Adobe Illustrator 25.0.0, SVG Export Plug-In . SVG Version: 6.00 Build 0)  -->
<svg version="1.1" id="Layer_1" xmlns="http://www.w3.org/2000/svg" xmlns:xlink="http://www.w3.org/1999/xlink" x="0px" y="0px"
	 viewBox="0 0 19.2 19.2" style="enable-background:new 0 0 19.2 19.2;" xml:space="preserve">
<style type="text/css">
	.st0{opacity:0.1;}
	.st1{fill:none;stroke:#292D32;stroke-width:1.5;stroke-linecap:round;stroke-linejoin:round;}
</style>
<g class="st0">
	<path class="st1" d="M18.4,5.7v7.8c0,2.9-1.8,4.9-4.7,4.9H5.4c-2.9,0-4.7-2-4.7-4.9V5.7c0-2.9,1.8-4.9,4.7-4.9h8.3
		C16.6,0.8,18.4,2.8,18.4,5.7z"/>
	<path class="st1" d="M3.2,13.9l1.5-1.5c0.5-0.5,1.4-0.6,1.9-0.1c0,0,0.9,0.9,0.9,0.9c0.5,0.5,1.4,0.6,1.9,0c0,0,2.2-2.7,2.2-2.7
		c0.6-0.7,1.6-0.8,2.3-0.2c0,0,2.1,2.2,2.1,2.2"/>
	<path class="st1" d="M8,6.9c0,0.9-0.8,1.7-1.7,1.7c-0.9,0-1.7-0.8-1.7-1.7s0.8-1.7,1.7-1.7C7.2,5.2,8,5.9,8,6.9z"/>
</g>
</svg>